<svg width="141" height="156" viewBox="0 0 141 156" fill="none" xmlns="http://www.w3.org/2000/svg">
<g clip-path="url(#clip0_17_760)">
<path fill-rule="evenodd" clip-rule="evenodd" d="M27.6622 4.45955C30.085 4.45955 32.2996 5.35132 33.9955 6.82452C35.8981 2.79113 40.0015 -1.52588e-05 44.7568 -1.52588e-05C48.3086 -1.52588e-05 51.4967 1.55709 53.6757 4.02592C55.8548 1.55709 59.0429 -1.52588e-05 62.5947 -1.52588e-05C67.0719 -1.52588e-05 70.9713 2.47431 73 6.13014C75.0287 2.47431 78.9281 -1.52588e-05 83.4053 -1.52588e-05C86.9571 -1.52588e-05 90.1452 1.55709 92.3243 4.02592C94.5033 1.55709 97.6914 -1.52588e-05 101.243 -1.52588e-05C105.999 -1.52588e-05 110.102 2.79113 112.004 6.82452C113.7 5.35132 115.915 4.45955 118.338 4.45955C123.674 4.45955 128 8.78545 128 14.1217C128 18.6906 124.829 22.5187 120.568 23.5253V23.7838H118.384L118.338 23.7839L118.292 23.7838H101.243H83.4053H77.4595H68.5405H62.5947H44.7568H27.708L27.6622 23.7839L27.6163 23.7838H25.4325V23.5253C21.1711 22.5187 18 18.6906 18 14.1217C18 8.78545 22.3259 4.45955 27.6622 4.45955Z" fill="#1B1C1E"/>
<g clip-path="url(#clip1_17_760)">
<path d="M13 15.7668V67.0001L140 43.4446V14.0001L13 15.7668Z" fill="#FFA500"/>
<circle cx="45" cy="90.0001" r="5" fill="white" stroke="#1B1C1E" stroke-width="4"/>
<circle cx="101" cy="90.0001" r="5" fill="white" stroke="#1B1C1E" stroke-width="4"/>
<path fill-rule="evenodd" clip-rule="evenodd" d="M62.0116 100.998H44.7519H27.7031L27.6572 100.997L27.6114 100.998H25.4275V101.256C21.1662 102.263 17.9951 106.091 17.9951 110.66C17.9951 115.996 22.321 120.322 27.6572 120.322C30.0801 120.322 32.2946 119.43 33.9906 117.957C35.8932 121.99 39.9966 124.781 44.7519 124.781C48.3037 124.781 51.4918 123.224 53.6708 120.755C55.8498 123.224 59.0379 124.781 62.5897 124.781C67.0682 124.781 70.9685 122.306 72.9967 118.648C75.0243 122.308 78.9257 124.785 83.4057 124.785C86.9575 124.785 90.1456 123.228 92.3246 120.759C94.5036 123.228 97.6917 124.785 101.244 124.785C105.999 124.785 110.102 121.994 112.005 117.96C113.701 119.434 115.915 120.325 118.338 120.325C123.674 120.325 128 116 128 110.663C128 106.094 124.829 102.266 120.568 101.26V101.001H118.384L118.338 101.001L118.292 101.001H101.244H83.4057H82.9883C82.7267 106.568 78.131 111 72.5 111C66.8678 111 62.2713 106.566 62.0116 100.998Z" fill="#1B1C1E"/>
<path fill-rule="evenodd" clip-rule="evenodd" d="M42.0458 73.7284C41.9866 73.4955 41.8953 73.2732 41.7703 73.065C40.693 71.2707 37.5166 71.199 34.6756 72.9047C31.8347 74.6105 30.405 77.4479 31.4823 79.2422C31.6073 79.4504 31.7606 79.6354 31.9384 79.7971C31.4873 78.023 32.8959 75.631 35.4072 74.1231C37.9184 72.6153 40.6918 72.4964 42.0458 73.7284Z" fill="#1B1C1E"/>
<path fill-rule="evenodd" clip-rule="evenodd" d="M112.223 79.3658C112.383 79.1865 112.516 78.9865 112.619 78.7665C113.505 76.8701 111.788 74.1964 108.786 72.7944C105.783 71.3925 102.631 71.7933 101.746 73.6896C101.643 73.9097 101.576 74.1402 101.541 74.378C102.76 73.0122 105.53 72.8429 108.185 74.0821C110.839 75.3214 112.488 77.5544 112.223 79.3658Z" fill="#1B1C1E"/>
<path d="M150.648 22.9669L140.468 73.1786L20.6806 24.8575L26.5313 -3.99986L150.648 22.9669Z" fill="#FFA500"/>
</g>
</g>
<defs>
<clipPath id="clip0_17_760">
<rect width="120" height="138" fill="white" transform="translate(13)"/>
</clipPath>
<clipPath id="clip1_17_760">
<rect x="13" y="18.0001" width="120" height="120" rx="20" fill="white"/>
</clipPath>
</defs>
</svg>
